<svg width="518" height="653" viewBox="0 0 518 653" fill="none" xmlns="http://www.w3.org/2000/svg">
<path d="M393.074 562.374C363.318 541.592 356.577 503.014 357.752 468.327C357.944 462.549 357.309 456.424 360.063 451.359C362.817 446.294 369.25 442.808 374.431 445.234C378.726 447.257 380.594 452.264 383.002 456.405C386.214 461.921 390.921 466.414 396.58 469.367C400.258 471.293 404.823 472.449 408.463 470.446C413.471 467.692 414.049 460.816 414.01 455.038C414.01 444.291 413.946 433.556 413.818 422.835C413.471 417.078 414.057 411.303 415.551 405.732C417.342 400.262 421.329 395.197 426.779 393.656C432.23 392.115 439.029 395.293 440.261 400.917C440.474 403.299 440.532 405.692 440.435 408.082C440.589 410.489 441.706 413.128 443.959 413.86C446.213 414.592 448.563 412.916 450.296 411.221C456.228 405.443 460.273 397.913 464.028 390.478C467.784 383.044 471.463 375.398 476.855 369.061C482.248 362.725 489.702 357.698 498.041 357.216C506.381 356.735 515.067 361.858 517.147 369.947C519.227 378.036 514.509 386.299 509.443 392.866C501.8 402.615 492.79 411.21 482.691 418.386C480.72 419.462 479.147 421.143 478.204 423.182C476.952 427.034 480.592 430.886 484.386 432.099C488.681 433.524 493.342 433.081 497.868 433.621C502.394 434.16 507.209 436.124 508.923 440.362C511.273 446.255 506.343 452.418 501.508 456.463C491.801 464.552 480.779 470.917 468.92 475.28C464.683 476.821 460.234 478.188 456.806 481.154C453.378 484.12 451.336 489.301 453.397 493.365C455.458 497.429 460.754 498.719 465.203 497.891C469.652 497.063 473.601 494.675 477.838 493.076C485.754 490.091 495.961 490.63 500.95 497.468C502.495 499.823 503.473 502.504 503.808 505.301C504.142 508.099 503.823 510.935 502.876 513.588C500.948 518.868 497.981 523.708 494.151 527.821C481.536 542.893 465.146 554.345 446.656 561.006C428.301 567.362 411.294 569.095 393.055 562.412" fill="#C996CC"/>
<path d="M508.673 361.973C508.673 361.973 508.5 362.166 508.114 362.513L506.4 364.034C504.898 365.382 502.683 367.347 499.89 369.947C491.972 377.299 484.62 385.237 477.895 393.695C473.6 399.03 469.151 405.077 464.413 411.645C459.675 418.213 454.783 425.3 449.93 432.831C444.755 440.772 440.017 448.989 435.735 457.445C433.501 461.856 431.537 466.459 429.514 471.158L423.544 485.507C415.674 503.581 408.819 522.08 403.013 540.918C398.335 556.331 395.111 572.149 393.383 588.163C392.262 598.97 392.082 609.854 392.843 620.693C393.151 624.545 393.44 627.492 393.71 629.495C393.826 630.458 393.903 631.228 393.98 631.787V632.576C393.897 632.326 393.839 632.068 393.806 631.806C393.71 631.248 393.594 630.496 393.44 629.533C393.094 627.607 392.728 624.564 392.381 620.712C391.452 609.854 391.516 598.933 392.574 588.086C394.195 572.003 397.349 556.112 401.992 540.629C407.75 521.738 414.585 503.192 422.465 485.083L428.59 470.792C430.612 466.112 432.596 461.471 434.849 457.041C439.161 448.559 443.938 440.322 449.16 432.369C454.09 424.665 459.059 417.693 463.739 411.183C468.42 404.673 472.946 398.587 477.221 393.271C484.014 384.836 491.465 376.953 499.505 369.697C502.356 367.135 504.628 365.209 506.169 363.919L507.96 362.474C508.18 362.283 508.419 362.115 508.673 361.973Z" fill="#263238"/>
<path d="M435.1 457.002C434.828 456.209 434.641 455.389 434.541 454.556C434.233 452.958 433.887 450.704 433.482 447.777C432.654 441.999 431.807 434.083 430.901 425.32C429.996 416.556 428.975 408.621 428.128 402.901C427.685 400.05 427.3 397.759 427.03 396.16C426.82 395.342 426.71 394.501 426.703 393.656C427.034 394.428 427.273 395.236 427.415 396.064C427.839 397.643 428.32 399.916 428.86 402.785C429.958 408.563 431.036 416.421 431.941 425.204C432.846 433.987 433.617 441.691 434.214 447.68C434.503 450.377 434.753 452.669 434.946 454.499C435.096 455.324 435.147 456.165 435.1 457.002Z" fill="#263238"/>
<path d="M509.212 443.174C508.275 443.378 507.321 443.494 506.362 443.52C504.436 443.694 501.701 443.925 498.311 444.31C491.532 445.042 482.21 446.39 471.983 448.316C461.756 450.242 452.569 452.418 445.963 454.094C442.669 454.941 440.011 455.712 438.259 456.232C437.323 456.564 436.354 456.797 435.37 456.925C436.26 456.478 437.188 456.11 438.143 455.827C439.953 455.192 442.573 454.306 445.847 453.362C452.415 451.436 461.602 449.144 471.867 447.18C480.563 445.517 489.338 444.296 498.157 443.52C501.566 443.231 504.32 443.116 506.246 443.077C507.236 443.01 508.229 443.042 509.212 443.174Z" fill="#263238"/>
<path d="M402.935 539.281C402.73 539.002 402.562 538.698 402.435 538.376L401.164 535.699C400.066 533.368 398.583 529.921 396.811 525.703C393.228 517.228 388.664 505.364 383.81 492.19C378.957 479.016 374.489 467.152 371.099 458.582C369.442 454.422 368.075 451.012 367.054 448.47L365.976 445.716C365.826 445.398 365.722 445.061 365.667 444.714C365.873 444.993 366.041 445.298 366.168 445.62L367.439 448.297C368.518 450.627 370.02 454.075 371.792 458.293C375.374 466.767 379.939 478.631 384.793 491.805C389.646 504.979 394.114 516.843 397.504 525.414C399.161 529.574 400.528 532.983 401.53 535.525C401.973 536.623 402.338 537.451 402.627 538.279C402.777 538.597 402.881 538.934 402.935 539.281Z" fill="#263238"/>
<path d="M501.316 507.56C501.007 507.737 500.677 507.873 500.334 507.964L497.483 508.927L486.948 512.336C478.05 515.225 465.762 519.347 452.28 523.892C438.798 528.438 426.452 532.482 417.496 535.179C413.028 536.546 409.388 537.586 406.865 538.28L403.957 539.031C403.618 539.138 403.27 539.209 402.917 539.243C403.225 539.066 403.555 538.93 403.899 538.838L406.749 537.875L417.284 534.466C426.183 531.577 438.47 527.455 451.952 522.91C465.434 518.365 477.761 514.32 486.717 511.624C491.204 510.256 494.825 509.216 497.367 508.523L500.276 507.772C500.614 507.664 500.963 507.593 501.316 507.56Z" fill="#263238"/>
<path d="M461.178 40.37L451.259 43.9138L447.003 30.9518C439.183 7.05018 414.261 -5.64216 391.361 2.42778C368.46 10.4977 356.269 36.7106 364.088 60.6122L368.345 73.5742L358.387 77.1373C354.59 78.61 351.507 81.4893 349.778 85.1767C348.049 88.864 347.808 93.0758 349.104 96.9366L376.704 181.276C377.277 183.187 378.228 184.964 379.501 186.5C380.774 188.037 382.343 189.301 384.114 190.219C385.886 191.137 387.824 191.69 389.813 191.844C391.802 191.999 393.802 191.752 395.694 191.118L498.485 154.351C502.332 152.88 505.459 149.976 507.208 146.247C508.957 142.519 509.193 138.257 507.864 134.359L480.245 50.0192C479.658 48.1134 478.692 46.3454 477.406 44.8209C476.12 43.2964 474.54 42.0466 472.761 41.1461C470.981 40.2455 469.038 39.7127 467.048 39.5793C465.058 39.446 463.062 39.7149 461.178 40.37ZM382.828 53.852C380.72 47.6372 381.098 40.8476 383.884 34.9056C386.671 28.9637 391.648 24.3305 397.774 21.9767C400.799 20.9417 404.002 20.5267 407.19 20.7563C410.379 20.986 413.489 21.8557 416.335 23.3135C419.18 24.7712 421.703 26.7872 423.752 29.2412C425.801 31.6952 427.336 34.5368 428.263 37.5965L432.5 50.5585L387.066 66.814L382.828 53.852ZM440.608 128.696L447.657 150.229C447.787 150.661 447.745 151.126 447.541 151.527C447.336 151.929 446.985 152.237 446.56 152.386L436.679 155.911C436.286 156.02 435.866 155.972 435.507 155.778C435.148 155.585 434.878 155.259 434.753 154.871L427.646 133.434C423.728 133.221 419.968 131.815 416.87 129.406C413.772 126.996 411.484 123.698 410.312 119.952C408.637 115 408.943 109.592 411.165 104.861C413.387 100.129 417.354 96.4407 422.234 94.5676C424.644 93.7443 427.195 93.4146 429.735 93.598C432.274 93.7814 434.751 94.4743 437.018 95.6354C439.284 96.7964 441.293 98.4018 442.926 100.356C444.559 102.31 445.782 104.573 446.521 107.01C447.76 110.814 447.863 114.898 446.816 118.76C445.769 122.623 443.619 126.096 440.628 128.754L440.608 128.696Z" fill="#C996CC"/>
<path d="M450.816 43.6827C450.816 43.9523 432.423 50.8667 409.542 59.0907C386.661 67.3147 367.998 73.9209 367.902 73.7283C367.805 73.5357 386.295 66.5636 409.195 58.3203C432.095 50.077 450.72 43.4323 450.816 43.6827Z" fill="#263238"/>
<path d="M472.657 47.2265C472.742 47.3937 472.813 47.5676 472.869 47.7466C473.023 48.1318 473.196 48.6325 473.427 49.2488C473.928 50.6548 474.622 52.6001 475.488 55.0268L482.884 76.5595C485.966 85.6888 489.644 96.5129 493.728 108.531C495.654 114.56 497.926 120.838 500.045 127.444C501.179 130.849 501.669 134.434 501.489 138.018C501.326 139.882 500.796 141.695 499.929 143.353C499.004 145.006 497.768 146.464 496.289 147.648C493.313 149.82 490.011 151.504 486.505 152.637L476.586 156.2L457.808 162.921L426.009 174.246L404.534 181.796L398.756 183.722L397.216 184.223C397.051 184.296 396.875 184.342 396.696 184.358C396.696 184.358 396.85 184.358 397.177 184.127L398.679 183.53L404.457 181.353L425.817 173.495L457.557 161.939L476.297 155.16L486.216 151.577C489.622 150.491 492.829 148.858 495.711 146.743C497.087 145.644 498.238 144.291 499.101 142.756C499.917 141.223 500.408 139.538 500.546 137.806C500.723 134.353 500.253 130.898 499.159 127.618C497.079 121.069 494.883 114.733 492.899 108.704C488.893 96.667 485.195 85.8043 482.268 76.6751C479.34 67.5458 476.875 60.2078 475.18 55.0461C474.371 52.523 473.755 50.5585 473.254 49.1333L472.792 47.5925C472.734 47.4758 472.689 47.3531 472.657 47.2265Z" fill="#263238"/>
<path d="M418.421 20.667C418.421 20.667 417.4 20.1662 415.513 19.3958C412.822 18.3621 409.977 17.7891 407.096 17.701C402.826 17.5545 398.577 18.3571 394.654 20.0507C389.884 22.1596 385.806 25.5707 382.886 29.8925C379.948 34.202 378.371 39.2948 378.36 44.5109C378.4 48.7861 379.049 53.0338 380.286 57.1262C381.288 60.6315 382.328 63.4242 383.021 65.3695C383.43 66.3575 383.765 67.3747 384.023 68.4125C383.476 67.4887 383.018 66.5149 382.655 65.5043C381.865 63.5783 380.729 60.8434 379.612 57.3188C378.241 53.1834 377.494 48.8666 377.397 44.5109C377.346 39.0977 378.959 33.7995 382.02 29.334C385.041 24.8543 389.286 21.3377 394.25 19.2032C398.295 17.5003 402.676 16.7492 407.058 17.0076C410.001 17.1576 412.892 17.8429 415.59 19.0299C416.311 19.3626 417.006 19.7489 417.67 20.1855C417.944 20.3059 418.197 20.4683 418.421 20.667Z" fill="#263238"/>
<path d="M419.307 96.0314C419.614 95.8451 419.936 95.6841 420.27 95.5499C421.234 95.1148 422.232 94.7605 423.255 94.4906C424.878 94.0115 426.553 93.727 428.243 93.6431C430.543 93.5196 432.843 93.8669 435.004 94.6639C439.934 96.3973 444.46 101.424 446.694 108.146C447.766 111.753 447.766 115.594 446.694 119.201C445.506 123.116 443.377 126.681 440.493 129.582L440.608 129.062C443.17 136.092 445.963 143.719 448.852 151.674L449.025 152.155L448.543 152.328L444.133 153.792L434.503 157.009L434.021 157.163L433.867 156.681C431.229 148.707 428.34 141.273 426.163 133.974L426.587 134.301C422.822 133.988 419.232 132.575 416.264 130.237C413.578 128.169 411.376 125.54 409.811 122.533C408.399 119.867 407.696 116.882 407.77 113.866C407.859 110.783 408.629 107.759 410.024 105.008C411.419 102.258 413.405 99.8502 415.84 97.9574C416.842 97.1438 417.967 96.4938 419.172 96.0314C418.084 96.6769 417.03 97.3776 416.013 98.1307C413.339 100.394 411.29 103.305 410.062 106.586C409.008 109.06 408.515 111.737 408.618 114.424C408.722 117.111 409.418 119.743 410.659 122.129C412.198 125.021 414.347 127.545 416.957 129.525C419.788 131.747 423.211 133.086 426.799 133.377H427.126L427.223 133.665C429.341 140.83 432.249 148.322 434.927 156.334L434.291 156.026L443.921 152.81L448.312 151.327L448.004 151.982C445.134 144.027 442.361 136.381 439.819 129.351V129.062L440.05 128.831C442.85 126.05 444.937 122.634 446.136 118.874C447.157 115.423 447.157 111.751 446.136 108.3C444.037 101.829 439.703 96.9173 435.004 95.1839C432.923 94.3818 430.703 94.0084 428.474 94.0861C426.811 94.1242 425.157 94.3504 423.544 94.7602C420.674 95.4728 419.326 96.1277 419.307 96.0314Z" fill="#263238"/>
<path d="M359.774 652.145L167.386 651.259C156.275 651.197 145.644 646.729 137.825 638.835C130.007 630.941 125.642 620.267 125.688 609.156L127.729 126.867C127.752 121.362 128.859 115.916 130.988 110.84C133.117 105.764 136.225 101.157 140.135 97.2826C144.045 93.4083 148.68 90.3425 153.776 88.2607C158.871 86.1788 164.327 85.1216 169.832 85.1495L362.201 86.0354C373.311 86.0915 383.945 90.5549 391.767 98.4454C399.588 106.336 403.959 117.008 403.918 128.119L401.876 610.389C401.854 615.895 400.746 621.343 398.618 626.421C396.49 631.5 393.383 636.109 389.473 639.987C385.563 643.864 380.928 646.933 375.833 649.019C370.737 651.105 365.28 652.167 359.774 652.145Z" fill="#455A64"/>
<path d="M361.912 102.618H324.624C323.408 102.641 322.207 102.903 321.092 103.389C319.977 103.876 318.968 104.577 318.124 105.454C317.28 106.33 316.616 107.364 316.172 108.497C315.728 109.63 315.511 110.839 315.534 112.056V118.816C315.557 120.032 315.339 121.24 314.895 122.372C314.45 123.503 313.787 124.536 312.942 125.411C312.098 126.286 311.089 126.986 309.974 127.47C308.858 127.954 307.659 128.214 306.443 128.234L233.756 127.907C231.297 127.841 228.964 126.802 227.271 125.018C225.577 123.234 224.661 120.851 224.723 118.392V111.632C224.785 109.176 223.871 106.796 222.182 105.012C220.492 103.229 218.165 102.188 215.709 102.118H202.593L169.947 101.963C162.182 101.917 154.716 104.95 149.182 110.397C143.648 115.844 140.498 123.262 140.422 131.027L138.496 601.78C138.478 605.632 139.219 609.45 140.677 613.015C142.135 616.581 144.28 619.824 146.992 622.561C149.703 625.297 152.927 627.473 156.479 628.963C160.031 630.454 163.842 631.23 167.694 631.247L359.678 632.133C363.532 632.151 367.352 631.41 370.92 629.951C374.488 628.492 377.734 626.345 380.472 623.632C383.21 620.919 385.387 617.693 386.879 614.138C388.37 610.584 389.147 606.771 389.165 602.916L391.091 132.163C391.137 124.377 388.089 116.89 382.617 111.35C377.146 105.81 369.698 102.669 361.912 102.618Z" fill="white"/>
<path d="M336.413 569.327L193.658 568.71C192.175 568.71 190.981 567.092 191 565.128L191.154 527.783C191.154 525.857 192.368 524.2 193.851 524.2L336.606 524.855C337.428 524.997 338.163 525.451 338.658 526.122C339.153 526.793 339.37 527.63 339.264 528.457L339.129 565.764C339.129 567.747 337.896 569.346 336.413 569.327Z" fill="#C996CC"/>
<path d="M248.496 551.049C248.073 551.049 247.667 550.981 247.277 550.846C246.892 550.71 246.594 550.531 246.382 550.309L246.618 549.845C246.824 550.051 247.098 550.219 247.439 550.349C247.781 550.474 248.133 550.537 248.496 550.537C249.006 550.537 249.388 550.444 249.643 550.26C249.898 550.07 250.025 549.826 250.025 549.528C250.025 549.301 249.955 549.119 249.814 548.983C249.678 548.848 249.51 548.745 249.309 548.674C249.109 548.599 248.83 548.517 248.472 548.431C248.044 548.322 247.702 548.219 247.447 548.122C247.193 548.019 246.973 547.864 246.789 547.658C246.61 547.452 246.52 547.173 246.52 546.821C246.52 546.533 246.596 546.273 246.748 546.04C246.9 545.801 247.133 545.612 247.447 545.471C247.762 545.33 248.152 545.259 248.618 545.259C248.944 545.259 249.261 545.305 249.57 545.398C249.884 545.484 250.155 545.606 250.383 545.763L250.179 546.243C249.941 546.086 249.686 545.969 249.415 545.894C249.144 545.812 248.878 545.772 248.618 545.772C248.12 545.772 247.743 545.869 247.488 546.064C247.239 546.254 247.114 546.501 247.114 546.804C247.114 547.032 247.182 547.216 247.317 547.357C247.458 547.493 247.632 547.598 247.838 547.674C248.049 547.745 248.331 547.823 248.683 547.91C249.101 548.013 249.437 548.116 249.692 548.219C249.952 548.317 250.171 548.468 250.35 548.674C250.529 548.875 250.619 549.149 250.619 549.496C250.619 549.783 250.54 550.046 250.383 550.284C250.231 550.518 249.995 550.705 249.675 550.846C249.356 550.981 248.962 551.049 248.496 551.049ZM251.93 545.308H252.531V551H251.93V545.308ZM259.14 545.308V551H258.644L254.985 546.381V551H254.383V545.308H254.879L258.547 549.927V545.308H259.14ZM265.007 548.154H265.584V550.325C265.318 550.558 265.004 550.737 264.641 550.862C264.278 550.986 263.895 551.049 263.494 551.049C262.925 551.049 262.413 550.924 261.957 550.675C261.502 550.425 261.144 550.081 260.884 549.642C260.624 549.198 260.494 548.702 260.494 548.154C260.494 547.607 260.624 547.113 260.884 546.674C261.144 546.23 261.502 545.883 261.957 545.633C262.413 545.384 262.928 545.259 263.502 545.259C263.936 545.259 264.334 545.33 264.698 545.471C265.061 545.606 265.367 545.81 265.616 546.081L265.242 546.463C264.793 546.018 264.221 545.796 263.527 545.796C263.066 545.796 262.649 545.899 262.275 546.105C261.906 546.306 261.616 546.587 261.404 546.951C261.193 547.308 261.087 547.71 261.087 548.154C261.087 548.599 261.193 549 261.404 549.357C261.616 549.715 261.906 549.997 262.275 550.203C262.643 550.409 263.058 550.512 263.519 550.512C264.104 550.512 264.6 550.366 265.007 550.073V548.154ZM271.708 551.049C270.971 551.049 270.396 550.837 269.984 550.415C269.572 549.992 269.366 549.376 269.366 548.569V545.308H269.968V548.544C269.968 549.206 270.117 549.699 270.415 550.024C270.713 550.349 271.144 550.512 271.708 550.512C272.277 550.512 272.711 550.349 273.009 550.024C273.307 549.699 273.456 549.206 273.456 548.544V545.308H274.042V548.569C274.042 549.376 273.836 549.992 273.424 550.415C273.017 550.837 272.445 551.049 271.708 551.049ZM277.985 545.308C278.712 545.308 279.281 545.482 279.693 545.829C280.105 546.175 280.311 546.652 280.311 547.26C280.311 547.867 280.105 548.344 279.693 548.691C279.281 549.032 278.712 549.203 277.985 549.203H276.457V551H275.855V545.308H277.985ZM277.969 548.674C278.533 548.674 278.964 548.552 279.262 548.309C279.56 548.059 279.709 547.71 279.709 547.26C279.709 546.799 279.56 546.446 279.262 546.203C278.964 545.953 278.533 545.829 277.969 545.829H276.457V548.674H277.969Z" fill="#E8E8E3"/>
<path d="M221.803 241.002L172.267 240.777L172.226 249.868L221.762 250.092L221.803 241.002Z" fill="#C996CC"/>
<path opacity="0.1" d="M221.803 241.002L172.267 240.777L172.226 249.868L221.762 250.092L221.803 241.002Z" fill="black"/>
<path d="M367.016 296.817C367.405 296.778 367.787 296.687 368.152 296.547C368.685 296.339 369.149 295.984 369.489 295.524C369.83 295.064 370.034 294.518 370.078 293.947C370.078 290.885 370.078 286.416 370.078 280.677C370.078 277.807 370.078 274.591 370.078 271.047C370.078 270.18 370.078 269.275 370.078 268.37C370.204 267.491 370.012 266.597 369.539 265.847C369.274 265.487 368.929 265.194 368.531 264.99C368.133 264.786 367.694 264.677 367.247 264.672H364.242H336.412L175.321 264.075C174.909 264.068 174.501 264.161 174.132 264.345C173.763 264.529 173.444 264.8 173.202 265.134C172.737 265.888 172.559 266.783 172.702 267.657C172.702 269.583 172.702 271.509 172.702 273.435C172.702 277.287 172.702 281.139 172.702 284.991C172.702 286.917 172.702 288.843 172.702 290.769C172.622 291.666 172.622 292.569 172.702 293.466C172.803 293.85 172.991 294.206 173.251 294.507C173.512 294.807 173.838 295.044 174.204 295.199C174.583 295.35 174.99 295.422 175.398 295.411H185.201L227.978 295.642L300.395 296.085L349.219 296.47L362.49 296.624H365.937C366.727 296.624 367.112 296.624 367.112 296.624H365.937H362.49H349.219H300.395L227.978 296.393L185.201 296.22H175.398C174.858 296.242 174.32 296.15 173.819 295.95C173.312 295.734 172.861 295.404 172.5 294.987C172.14 294.57 171.879 294.076 171.739 293.543C171.627 293.037 171.588 292.518 171.623 292.002V290.577C171.623 288.651 171.623 286.725 171.623 284.799C171.623 280.947 171.623 277.095 171.623 273.243C171.623 271.317 171.623 269.391 171.623 267.465C171.586 266.952 171.586 266.437 171.623 265.924C171.695 265.357 171.914 264.819 172.259 264.364C172.591 263.899 173.031 263.521 173.54 263.263C174.05 263.005 174.615 262.874 175.186 262.881L336.277 263.767L364.107 263.959H367.112C367.641 263.96 368.163 264.088 368.632 264.332C369.102 264.577 369.505 264.932 369.808 265.365C370.351 266.203 370.571 267.209 370.425 268.197C370.425 269.102 370.425 270.007 370.425 270.874C370.425 274.379 370.425 277.595 370.425 280.504C370.425 286.282 370.29 290.711 370.251 293.793C370.204 294.386 369.989 294.952 369.631 295.427C369.272 295.901 368.786 296.263 368.229 296.47C367.865 296.696 367.444 296.816 367.016 296.817Z" fill="#E0E0E0"/>
<path d="M277.746 273.743H187.146V282.237H277.746V273.743Z" fill="#C996CC"/>
<path opacity="0.2" d="M277.746 273.743H187.146V282.237H277.746V273.743Z" fill="white"/>
<path d="M221.465 323.933L171.929 323.708L171.888 332.799L221.424 333.024L221.465 323.933Z" fill="#C996CC"/>
<path opacity="0.1" d="M221.465 323.933L171.929 323.708L171.888 332.799L221.424 333.024L221.465 323.933Z" fill="black"/>
<path d="M365.764 379.75C366.153 379.703 366.539 379.632 366.92 379.539C367.457 379.367 367.952 379.083 368.371 378.704C368.79 378.325 369.122 377.861 369.346 377.343C369.65 376.565 369.768 375.728 369.693 374.897C369.693 373.972 369.693 372.971 369.693 371.854C369.693 369.62 369.693 367.077 369.693 364.15V351.92C369.785 351.034 369.589 350.143 369.134 349.377C368.659 348.592 367.912 348.01 367.035 347.74C366.076 347.569 365.099 347.517 364.127 347.586H336.412L175.879 346.989C175.016 346.991 174.183 347.307 173.534 347.877C172.886 348.447 172.467 349.234 172.355 350.09C172.355 351.92 172.355 353.942 172.355 355.868C172.355 359.72 172.355 363.572 172.355 367.424C172.355 369.35 172.355 371.276 172.355 373.202C172.283 374.102 172.322 375.008 172.47 375.898C172.711 376.679 173.206 377.357 173.876 377.824C174.588 378.276 175.424 378.492 176.265 378.441H178.942H184.508L227.13 378.653L299.298 379.096L347.948 379.481L361.18 379.635H364.628H365.783H364.628H361.18H347.948H299.298L227.092 379.558L184.469 379.404H176.091C175.05 379.466 174.016 379.189 173.145 378.614C172.268 378.007 171.629 377.116 171.334 376.091C171.162 375.112 171.11 374.116 171.18 373.125C171.18 371.199 171.18 369.273 171.18 367.347C171.18 363.495 171.18 359.643 171.18 355.791C171.18 353.865 171.18 351.939 171.18 350.013C171.321 348.912 171.858 347.899 172.691 347.165C173.524 346.432 174.596 346.027 175.706 346.026L336.238 346.912L363.953 347.124C364.986 347.061 366.021 347.132 367.035 347.336C368.036 347.663 368.88 348.349 369.404 349.262C369.902 350.11 370.118 351.095 370.02 352.074C370.02 352.979 370.02 353.865 370.02 354.751C370.02 358.237 370.02 361.434 370.02 364.381C370.02 367.328 370.02 369.812 370.02 372.085C370.02 373.183 370.02 374.204 370.02 375.147C370.09 376.009 369.952 376.874 369.616 377.67C369.366 378.202 369.004 378.673 368.556 379.052C368.107 379.431 367.582 379.709 367.016 379.866C366.595 379.901 366.171 379.862 365.764 379.75Z" fill="#E0E0E0"/>
<path d="M221.092 410.465L171.556 410.241L171.515 419.331L221.051 419.556L221.092 410.465Z" fill="#C996CC"/>
<path opacity="0.1" d="M221.092 410.465L171.556 410.241L171.515 419.331L221.051 419.556L221.092 410.465Z" fill="black"/>
<path d="M365.379 466.247C365.768 466.201 366.154 466.13 366.534 466.035C367.07 465.865 367.563 465.583 367.981 465.208C368.4 464.833 368.734 464.373 368.961 463.859C369.263 463.081 369.381 462.244 369.308 461.413C369.308 460.469 369.308 459.487 369.308 458.351C369.308 456.136 369.308 453.574 369.308 450.647V438.416C369.4 437.531 369.204 436.639 368.749 435.874C368.263 435.103 367.519 434.53 366.65 434.256C365.691 434.078 364.714 434.02 363.742 434.083H336.026L175.494 433.486C174.631 433.488 173.797 433.803 173.149 434.374C172.501 434.944 172.082 435.731 171.97 436.587C171.97 438.513 171.97 440.439 171.97 442.365C171.97 446.217 171.97 450.069 171.97 453.921C171.97 455.847 171.97 457.773 171.97 459.699C171.898 460.592 171.937 461.492 172.085 462.376C172.316 463.162 172.813 463.843 173.491 464.302C174.198 464.764 175.037 464.98 175.879 464.918H184.258L226.88 465.149L299.047 465.592L347.698 465.978L360.929 466.132H347.698H299.047L226.88 465.92L184.258 465.746H175.879C174.837 465.817 173.8 465.539 172.933 464.957C172.056 464.35 171.417 463.458 171.122 462.434C170.95 461.455 170.898 460.459 170.968 459.468C170.968 457.542 170.968 455.616 170.968 453.69C170.968 449.838 170.968 445.986 170.968 442.134C170.968 440.208 170.968 438.282 170.968 436.259C171.104 435.16 171.637 434.148 172.467 433.413C173.297 432.679 174.367 432.273 175.475 432.272L336.007 433.158L363.722 433.37C364.754 433.307 365.79 433.378 366.804 433.582C367.805 433.909 368.648 434.595 369.173 435.508C369.671 436.356 369.887 437.341 369.789 438.32C369.789 439.225 369.789 440.131 369.789 440.997C369.789 444.483 369.789 447.68 369.789 450.627C369.789 453.574 369.789 456.059 369.789 458.331C369.789 459.429 369.789 460.45 369.789 461.394C369.863 462.255 369.724 463.122 369.385 463.917C369.135 464.448 368.773 464.919 368.324 465.298C367.876 465.677 367.35 465.955 366.785 466.112C366.333 466.267 365.851 466.313 365.379 466.247Z" fill="#E0E0E0"/>
<path d="M275.811 359.078L185.213 358.667L185.175 367.161L275.773 367.572L275.811 359.078Z" fill="#C996CC"/>
<path opacity="0.2" d="M275.811 359.078L185.213 358.667L185.175 367.161L275.773 367.572L275.811 359.078Z" fill="white"/>
<path d="M193.406 450.531C193.349 451.306 193.066 452.047 192.592 452.662C192.118 453.277 191.474 453.74 190.739 453.993C190.004 454.245 189.212 454.277 188.46 454.083C187.707 453.889 187.028 453.479 186.507 452.903C185.986 452.327 185.645 451.611 185.527 450.843C185.41 450.075 185.52 449.289 185.844 448.584C186.168 447.878 186.693 447.283 187.352 446.872C188.012 446.462 188.777 446.254 189.554 446.274C190.627 446.334 191.633 446.815 192.354 447.612C193.075 448.408 193.453 449.457 193.406 450.531Z" fill="#C996CC"/>
<path d="M205.675 450.589C205.713 451.132 205.638 451.677 205.457 452.19C205.275 452.703 204.99 453.173 204.618 453.571C204.247 453.969 203.798 454.286 203.299 454.504C202.8 454.721 202.261 454.833 201.717 454.833C201.172 454.833 200.634 454.721 200.135 454.504C199.636 454.286 199.187 453.969 198.815 453.571C198.444 453.173 198.159 452.703 197.977 452.19C197.795 451.677 197.721 451.132 197.759 450.589C197.721 450.046 197.795 449.501 197.977 448.988C198.159 448.475 198.444 448.004 198.815 447.606C199.187 447.208 199.636 446.891 200.135 446.674C200.634 446.457 201.172 446.345 201.717 446.345C202.261 446.345 202.8 446.457 203.299 446.674C203.798 446.891 204.247 447.208 204.618 447.606C204.99 448.004 205.275 448.475 205.457 448.988C205.638 449.501 205.713 450.046 205.675 450.589Z" fill="#C996CC"/>
<path d="M217.963 450.646C217.906 451.421 217.623 452.162 217.149 452.778C216.675 453.393 216.03 453.856 215.296 454.108C214.561 454.361 213.768 454.392 213.016 454.198C212.264 454.005 211.585 453.594 211.064 453.018C210.543 452.442 210.202 451.726 210.084 450.958C209.966 450.19 210.076 449.405 210.401 448.699C210.725 447.993 211.25 447.398 211.909 446.988C212.569 446.577 213.334 446.369 214.111 446.39C215.182 446.455 216.185 446.936 216.905 447.732C217.625 448.528 218.005 449.574 217.963 450.646Z" fill="#C996CC"/>
<path d="M230.231 450.704C230.174 451.479 229.891 452.22 229.417 452.835C228.943 453.451 228.299 453.913 227.564 454.166C226.83 454.418 226.037 454.45 225.285 454.256C224.533 454.062 223.854 453.652 223.332 453.076C222.811 452.5 222.47 451.784 222.353 451.016C222.235 450.248 222.345 449.463 222.669 448.757C222.994 448.051 223.518 447.456 224.178 447.046C224.837 446.635 225.603 446.427 226.379 446.448C227.45 446.512 228.454 446.994 229.174 447.79C229.894 448.586 230.273 449.632 230.231 450.704Z" fill="#C996CC"/>
<path d="M242.5 450.743C242.446 451.519 242.166 452.262 241.694 452.88C241.222 453.498 240.579 453.964 239.845 454.219C239.11 454.475 238.317 454.509 237.563 454.317C236.809 454.125 236.129 453.716 235.606 453.141C235.082 452.565 234.74 451.849 234.621 451.08C234.501 450.312 234.611 449.525 234.935 448.818C235.259 448.111 235.784 447.515 236.444 447.104C237.104 446.693 237.87 446.485 238.648 446.506C239.715 446.57 240.716 447.049 241.435 447.841C242.155 448.632 242.537 449.674 242.5 450.743Z" fill="#C996CC"/>
<path d="M254.788 450.801C254.735 451.572 254.458 452.312 253.991 452.929C253.523 453.545 252.886 454.011 252.156 454.27C251.427 454.529 250.639 454.569 249.887 454.385C249.136 454.201 248.454 453.802 247.927 453.236C247.399 452.67 247.049 451.962 246.919 451.199C246.788 450.437 246.884 449.653 247.193 448.944C247.503 448.235 248.013 447.631 248.661 447.209C249.308 446.786 250.066 446.561 250.839 446.563C251.924 446.604 252.949 447.072 253.689 447.866C254.429 448.661 254.824 449.716 254.788 450.801Z" fill="#C996CC"/>
<path d="M267.056 450.858C267.094 451.401 267.02 451.946 266.838 452.459C266.656 452.973 266.371 453.443 266 453.841C265.629 454.239 265.179 454.556 264.68 454.773C264.181 454.99 263.643 455.102 263.098 455.102C262.554 455.102 262.016 454.99 261.516 454.773C261.017 454.556 260.568 454.239 260.197 453.841C259.826 453.443 259.54 452.973 259.359 452.459C259.177 451.946 259.103 451.401 259.14 450.858C259.103 450.315 259.177 449.77 259.359 449.257C259.54 448.744 259.826 448.274 260.197 447.876C260.568 447.478 261.017 447.161 261.516 446.944C262.016 446.727 262.554 446.615 263.098 446.615C263.643 446.615 264.181 446.727 264.68 446.944C265.179 447.161 265.629 447.478 266 447.876C266.371 448.274 266.656 448.744 266.838 449.257C267.02 449.77 267.094 450.315 267.056 450.858Z" fill="#C996CC"/>
<path d="M279.325 450.916C279.273 451.688 278.995 452.428 278.528 453.044C278.06 453.661 277.423 454.127 276.694 454.386C275.965 454.644 275.176 454.684 274.424 454.501C273.673 454.317 272.991 453.917 272.464 453.351C271.937 452.785 271.586 452.077 271.456 451.315C271.326 450.552 271.421 449.768 271.731 449.059C272.04 448.35 272.55 447.747 273.198 447.324C273.846 446.901 274.603 446.677 275.377 446.679C276.462 446.719 277.486 447.188 278.226 447.982C278.966 448.776 279.361 449.831 279.325 450.916Z" fill="#C996CC"/>
<path d="M291.593 450.974C291.54 451.75 291.26 452.493 290.788 453.111C290.316 453.729 289.673 454.195 288.938 454.45C288.204 454.706 287.411 454.74 286.657 454.548C285.903 454.356 285.222 453.947 284.699 453.372C284.176 452.796 283.834 452.08 283.714 451.311C283.595 450.543 283.704 449.756 284.029 449.049C284.353 448.342 284.877 447.746 285.537 447.335C286.198 446.924 286.964 446.716 287.741 446.737C288.809 446.801 289.809 447.281 290.529 448.072C291.249 448.864 291.63 449.905 291.593 450.974Z" fill="#C996CC"/>
<g opacity="0.2">
<path opacity="0.2" d="M193.406 450.531C193.349 451.306 193.066 452.047 192.592 452.662C192.118 453.277 191.474 453.74 190.739 453.993C190.004 454.245 189.212 454.277 188.46 454.083C187.707 453.889 187.028 453.479 186.507 452.903C185.986 452.327 185.645 451.611 185.527 450.843C185.41 450.075 185.52 449.289 185.844 448.584C186.168 447.878 186.693 447.283 187.352 446.872C188.012 446.462 188.777 446.254 189.554 446.274C190.627 446.334 191.633 446.815 192.354 447.612C193.075 448.408 193.453 449.457 193.406 450.531Z" fill="white"/>
<path opacity="0.2" d="M205.675 450.589C205.712 451.132 205.638 451.677 205.456 452.19C205.275 452.703 204.989 453.173 204.618 453.571C204.247 453.969 203.798 454.286 203.299 454.504C202.799 454.721 202.261 454.833 201.717 454.833C201.172 454.833 200.634 454.721 200.135 454.504C199.635 454.286 199.186 453.969 198.815 453.571C198.444 453.173 198.158 452.703 197.977 452.19C197.795 451.677 197.721 451.132 197.759 450.589C197.721 450.046 197.795 449.501 197.977 448.988C198.158 448.475 198.444 448.004 198.815 447.606C199.186 447.208 199.635 446.891 200.135 446.674C200.634 446.457 201.172 446.345 201.717 446.345C202.261 446.345 202.799 446.457 203.299 446.674C203.798 446.891 204.247 447.208 204.618 447.606C204.989 448.004 205.275 448.475 205.456 448.988C205.638 449.501 205.712 450.046 205.675 450.589Z" fill="white"/>
<path opacity="0.2" d="M217.962 450.646C217.905 451.421 217.622 452.162 217.148 452.778C216.674 453.393 216.03 453.856 215.295 454.108C214.561 454.361 213.768 454.392 213.016 454.198C212.264 454.005 211.585 453.594 211.064 453.018C210.542 452.442 210.202 451.726 210.084 450.958C209.966 450.19 210.076 449.405 210.4 448.699C210.725 447.993 211.249 447.398 211.909 446.988C212.568 446.577 213.334 446.369 214.11 446.39C215.182 446.455 216.185 446.936 216.905 447.732C217.625 448.528 218.005 449.574 217.962 450.646Z" fill="white"/>
<path opacity="0.2" d="M230.231 450.704C230.174 451.479 229.891 452.22 229.417 452.835C228.943 453.451 228.299 453.913 227.564 454.166C226.83 454.418 226.037 454.45 225.285 454.256C224.533 454.062 223.854 453.652 223.332 453.076C222.811 452.5 222.47 451.784 222.353 451.016C222.235 450.248 222.345 449.463 222.669 448.757C222.994 448.051 223.518 447.456 224.178 447.046C224.837 446.635 225.603 446.427 226.379 446.448C227.45 446.512 228.454 446.994 229.174 447.79C229.894 448.586 230.273 449.632 230.231 450.704Z" fill="white"/>
<path opacity="0.2" d="M242.5 450.743C242.446 451.519 242.166 452.262 241.694 452.88C241.222 453.498 240.579 453.964 239.845 454.219C239.11 454.475 238.317 454.509 237.563 454.317C236.809 454.125 236.129 453.716 235.606 453.141C235.082 452.565 234.74 451.849 234.621 451.08C234.501 450.312 234.611 449.525 234.935 448.818C235.259 448.111 235.784 447.515 236.444 447.104C237.104 446.693 237.87 446.485 238.648 446.506C239.715 446.57 240.716 447.049 241.435 447.841C242.155 448.632 242.537 449.674 242.5 450.743Z" fill="white"/>
<path opacity="0.2" d="M254.788 450.801C254.735 451.572 254.458 452.312 253.99 452.928C253.523 453.545 252.885 454.011 252.156 454.27C251.427 454.529 250.638 454.569 249.887 454.385C249.135 454.201 248.454 453.802 247.926 453.236C247.399 452.67 247.049 451.962 246.918 451.199C246.788 450.437 246.883 449.653 247.193 448.944C247.503 448.235 248.013 447.631 248.66 447.209C249.308 446.786 250.066 446.561 250.839 446.563C251.924 446.604 252.949 447.072 253.689 447.866C254.429 448.661 254.824 449.716 254.788 450.801Z" fill="white"/>
<path opacity="0.2" d="M267.056 450.858C267.094 451.401 267.02 451.946 266.838 452.459C266.656 452.972 266.371 453.443 266 453.841C265.629 454.239 265.179 454.556 264.68 454.773C264.181 454.99 263.643 455.102 263.098 455.102C262.554 455.102 262.016 454.99 261.516 454.773C261.017 454.556 260.568 454.239 260.197 453.841C259.826 453.443 259.54 452.972 259.359 452.459C259.177 451.946 259.103 451.401 259.14 450.858C259.103 450.315 259.177 449.77 259.359 449.257C259.54 448.744 259.826 448.274 260.197 447.876C260.568 447.478 261.017 447.161 261.516 446.944C262.016 446.727 262.554 446.615 263.098 446.615C263.643 446.615 264.181 446.727 264.68 446.944C265.179 447.161 265.629 447.478 266 447.876C266.371 448.274 266.656 448.744 266.838 449.257C267.02 449.77 267.094 450.315 267.056 450.858Z" fill="white"/>
<path opacity="0.2" d="M279.325 450.916C279.272 451.688 278.995 452.428 278.527 453.044C278.06 453.661 277.422 454.127 276.693 454.386C275.964 454.644 275.175 454.684 274.424 454.501C273.672 454.317 272.991 453.917 272.464 453.351C271.936 452.785 271.586 452.077 271.455 451.315C271.325 450.552 271.421 449.768 271.73 449.059C272.04 448.35 272.55 447.747 273.197 447.324C273.845 446.901 274.603 446.677 275.376 446.679C276.461 446.719 277.486 447.188 278.226 447.982C278.966 448.776 279.361 449.831 279.325 450.916Z" fill="white"/>
<path opacity="0.2" d="M291.593 450.974C291.54 451.75 291.26 452.493 290.788 453.111C290.316 453.729 289.673 454.195 288.938 454.45C288.204 454.706 287.411 454.74 286.657 454.548C285.903 454.356 285.222 453.947 284.699 453.372C284.176 452.796 283.834 452.08 283.714 451.311C283.595 450.543 283.704 449.756 284.029 449.049C284.353 448.342 284.877 447.746 285.537 447.335C286.198 446.924 286.964 446.716 287.741 446.737C288.809 446.801 289.809 447.281 290.529 448.072C291.249 448.864 291.63 449.905 291.593 450.974Z" fill="white"/>
</g>
<path d="M274.163 172.937C275.501 172.347 276.636 171.378 277.427 170.148C278.218 168.919 278.63 167.484 278.612 166.022C278.662 165.072 278.518 164.121 278.188 163.229C277.859 162.336 277.352 161.52 276.697 160.829C276.042 160.139 275.253 159.589 274.379 159.214C273.504 158.838 272.563 158.644 271.611 158.644C270.659 158.644 269.718 158.838 268.843 159.214C267.969 159.589 267.181 160.139 266.526 160.829C265.87 161.52 265.363 162.336 265.034 163.229C264.704 164.121 264.56 165.072 264.61 166.022C264.581 167.499 264.989 168.951 265.785 170.195C266.58 171.439 267.726 172.42 269.078 173.014C258.293 174.631 258.774 186.342 258.774 186.342L284.275 186.457C284.275 186.457 284.872 174.535 274.163 172.937Z" fill="#C996CC"/>
<path opacity="0.1" d="M274.163 172.937C275.501 172.347 276.636 171.378 277.427 170.148C278.218 168.919 278.63 167.484 278.612 166.022C278.662 165.072 278.518 164.121 278.188 163.229C277.859 162.336 277.352 161.52 276.697 160.829C276.042 160.139 275.253 159.589 274.379 159.214C273.504 158.838 272.563 158.644 271.611 158.644C270.659 158.644 269.718 158.838 268.843 159.214C267.969 159.589 267.181 160.139 266.526 160.829C265.87 161.52 265.363 162.336 265.034 163.229C264.704 164.121 264.56 165.072 264.61 166.022C264.581 167.499 264.989 168.951 265.785 170.195C266.58 171.439 267.726 172.42 269.078 173.014C258.293 174.631 258.774 186.342 258.774 186.342L284.275 186.457C284.275 186.457 284.872 174.535 274.163 172.937Z" fill="black"/>
<path d="M315.6 194.01L224.713 193.597L224.664 204.46L315.551 204.872L315.6 194.01Z" fill="#C996CC"/>
<path opacity="0.2" d="M315.6 194.01L224.713 193.597L224.664 204.46L315.551 204.872L315.6 194.01Z" fill="white"/>
<path d="M42.7858 227.426H42.0149L39.7842 227.59C38.5771 227.663 37.3766 227.822 36.1922 228.066C35.425 228.174 34.664 228.322 33.9123 228.509L31.3701 229.214C27.043 230.542 22.9604 232.564 19.2819 235.201C14.4218 238.729 10.3636 243.245 7.37414 248.454C5.61706 251.456 4.21879 254.654 3.20807 257.983C2.14603 261.601 1.53456 265.336 1.38747 269.104C1.28972 271.083 1.32259 273.066 1.48588 275.041C1.48588 276.042 1.76471 277.042 1.89593 278.059C2.00629 279.084 2.19825 280.099 2.46999 281.093C3.94488 287.675 6.93748 293.821 11.2091 299.041C15.4807 304.261 20.913 308.41 27.0728 311.158C31.531 313.082 36.3094 314.155 41.162 314.323C46.1739 314.599 51.1909 313.88 55.9236 312.208L57.367 311.666H57.5638L57.7278 311.765L78.4106 322.262L77.8037 322.787C75.5895 315.931 73.4572 309.288 71.3906 302.908V302.662L71.571 302.481C76.5883 297.428 80.313 291.239 82.429 284.439C84.3456 278.223 84.905 271.667 84.0692 265.216C83.3258 259.483 81.4824 253.947 78.6402 248.913C76.1903 244.588 73.0297 240.707 69.2912 237.432C66.2067 234.839 62.7929 232.666 59.1384 230.969C56.3733 229.777 53.4934 228.87 50.5438 228.263L47.2635 227.722L44.8852 227.541L43.4418 227.443H42.9498C43.1133 227.425 43.2783 227.425 43.4418 227.443H44.9016L47.2799 227.541L50.5602 228.017C53.5465 228.579 56.4656 229.453 59.2696 230.625C62.9869 232.302 66.4623 234.47 69.6028 237.071C73.4101 240.332 76.6376 244.213 79.1487 248.552C82.0716 253.64 83.9715 259.251 84.7417 265.069C85.6468 271.62 85.1265 278.289 83.2163 284.62C81.0864 291.561 77.3042 297.881 72.1943 303.039L72.2927 302.613C74.3593 308.993 76.508 315.636 78.7386 322.475L79.0503 323.476L78.1153 323L57.4326 312.519H57.7934L56.3173 313.061C51.4934 314.758 46.3836 315.494 41.2768 315.226C36.3196 315.037 31.4412 313.924 26.8924 311.945C18.2153 308.229 10.996 301.77 6.34083 293.559C4.1986 289.766 2.63414 285.675 1.6991 281.421C1.44305 280.401 1.25132 279.366 1.12504 278.321C0.993824 277.288 0.780604 276.271 0.731398 275.254C0.287495 269.418 0.904321 263.55 2.55201 257.934C3.58789 254.559 5.02513 251.321 6.83289 248.29C9.89367 243.034 14.0364 238.489 18.9867 234.955C22.7257 232.311 26.8769 230.305 31.2716 229.017L33.8467 228.361C34.6047 228.186 35.3711 228.049 36.143 227.951C37.3397 227.73 38.5514 227.598 39.7678 227.558L42.0149 227.476C42.2704 227.441 42.528 227.425 42.7858 227.426Z" fill="#C996CC"/>
<path d="M52.1348 265.676H49.1004L42.5397 256.458V250.405C42.5397 250.405 37.8488 250.11 38.4064 258.032C38.9641 265.954 38.4064 263.937 38.4064 263.937C38.4064 263.937 28.4505 263.937 27.6304 264.839C26.8103 265.741 26.7611 275.353 26.6463 280.716C26.5834 282.009 26.9544 283.286 27.7003 284.344C28.4462 285.402 29.5242 286.18 30.7631 286.555C31.1104 286.651 31.4689 286.701 31.8293 286.703C34.3223 286.703 47.001 284.685 47.001 284.685H52.2332L52.1348 265.676Z" fill="#C996CC"/>
<path d="M60.8113 264.052L58.9415 284.784H53.7585V264.478L60.8113 264.052Z" fill="#C996CC"/>
</svg>
